<mxfile host="app.diagrams.net" modified="2023-12-19T08:03:28.199Z" agent="Mozilla/5.0 (Windows NT 10.0; Win64; x64) AppleWebKit/537.36 (KHTML, like Gecko) Chrome/120.0.0.0 Safari/537.36" version="22.1.11" etag="LrbySs036Bl_0m3sFNAY" type="github">
  <diagram name="第 1 页" id="KWasOtkGla4huWQWOD4v">
    <mxGraphModel>
      <root>
        <mxCell id="0" />
        <mxCell id="1" parent="0" />
      </root>
    </mxGraphModel>
  </diagram>
</mxfile>
